<?xml version="1.0" encoding="utf-8"?>
<!-- Generator: Adobe Illustrator 16.0.0, SVG Export Plug-In . SVG Version: 6.00 Build 0)  -->
<!DOCTYPE svg PUBLIC "-//W3C//DTD SVG 1.1//EN" "http://www.w3.org/Graphics/SVG/1.1/DTD/svg11.dtd">
<svg version="1.1" id="Layer_1" xmlns="http://www.w3.org/2000/svg" xmlns:xlink="http://www.w3.org/1999/xlink" x="0px" y="0px"
	 width="1000px" height="480px" viewBox="0 0 1000 480" enable-background="new 0 0 1000 480" xml:space="preserve">
<title>London Skyline</title>
<g>
	<title>Layer 1</title>
	<g id="layer11">
		<g id="g3228">
		</g>
		<g id="g3909">
			<path id="path3094" fill="#00CA9E" stroke="#00CA9E" stroke-width="0.1296" d="M376.046,247.139l-0.043-14.126
				c0,0,1.208-0.161,1.852-0.913c0-0.107,0-37.424,0-37.424l-12.783,0c0,0,0,37.317,0,37.424c0.645,0.752,1.853,0.913,1.853,0.913
				v13.934C369.038,248.777,373.932,248.329,376.046,247.139z"/>
			<path id="path3096" fill="#00CA9E" stroke="#00CA9E" stroke-width="0.1296" d="M368.934,194.7l-0.041-19.625h5.087l0.014,19.62
				L368.934,194.7L368.934,194.7z"/>
			<path id="path3098" fill="#00CA9E" stroke="#00CA9E" stroke-width="0.1296" d="M365.609,191.306v1.386h11.732v-1.405
				L365.609,191.306z"/>
			<path id="path3100" fill="#00CA9E" stroke="#00CA9E" stroke-width="0.1296" d="M365.666,187.357v1.386h11.732v-1.404
				L365.666,187.357z"/>
			<path id="path3102" fill="#00CA9E" stroke="#00CA9E" stroke-width="0.1296" d="M365.59,183.409v1.386h11.732v-1.405
				L365.59,183.409z"/>
			<path id="path3104" fill="#00CA9E" stroke="#00CA9E" stroke-width="0.1296" d="M365.704,179.441v1.386h3.315h8.417v-1.405
				L365.704,179.441z"/>
			<path id="path3106" fill="#00CA9E" stroke="#00CA9E" stroke-width="0.1296" d="M365.609,175.417v1.386h11.732v-1.405
				L365.609,175.417z"/>
			<path id="path3108" fill="#00CA9E" stroke="#00CA9E" stroke-width="0.1296" d="M374.076,175.053c0,0,3.189-0.114,3.797-0.531
				c-0.019-0.987-0.019-1.006-0.019-1.006s-0.19-0.19-0.759-0.285c-0.057,0.019-0.038-0.247-0.038-0.247h0.532l0.247-0.247v-4.024
				h0.342c0,0,0.212-0.116,0.286-0.311c0-0.222,0-5.229,0-5.229s-0.282-0.329-0.651-0.443c0.02-0.021,0-3.564,0-3.564
				c-0.404-0.663-2.228-0.904-3.45-1.067l0.007-0.275c0,0,1.061-0.074,1.249-0.302c0.02,0,0.389-0.329,0.409-0.463
				c0.014-0.027,0-2.45,0-2.45c-0.142-0.247-1.235-0.678-2.235-0.745l-4.651,0.003c-1,0.067-2.093,0.498-2.235,0.745
				c0,0-0.013,2.423,0,2.45c0.021,0.134,0.39,0.463,0.41,0.463c0.188,0.229,1.249,0.302,1.249,0.302l0.007,0.275
				c-1.222,0.164-3.045,0.405-3.45,1.067c0,0-0.021,3.543,0,3.564c-0.369,0.114-0.651,0.443-0.651,0.443s0,5.007,0,5.229
				c0.074,0.194,0.287,0.311,0.287,0.311h0.342v4.024l0.247,0.247h0.532c0,0,0.019,0.266-0.038,0.247
				c-0.57,0.095-0.759,0.285-0.759,0.285s0,0.019-0.019,1.006c0.607,0.417,3.796,0.532,3.796,0.532L374.076,175.053L374.076,175.053
				z"/>
			<path id="path3110" fill="#00CA9E" stroke="#00CA9E" stroke-width="0.1296" d="M365.972,191.278v-0.269h-0.698l-0.121,0.403
				l-0.805,0.014l-0.161-0.752v-0.778l0.147-0.51l0.819-0.027l0.202,0.269v1.141l0.913,0.027l0.014,0.443L365.972,191.278z"/>
			<path id="path3112" fill="#00CA9E" stroke="#00CA9E" stroke-width="0.1296" d="M365.74,187.29v-0.268h-0.698l-0.121,0.402
				l-0.805,0.014l-0.161-0.752v-0.778l0.147-0.51l0.819-0.027l0.202,0.269v1.141l0.913,0.027l0.013,0.443L365.74,187.29z"/>
			<path id="path3114" fill="#00CA9E" stroke="#00CA9E" stroke-width="0.1296" d="M365.905,183.399v-0.269h-0.698l-0.121,0.403
				l-0.806,0.014l-0.161-0.752v-0.778l0.148-0.51l0.819-0.027l0.201,0.269v1.141l0.913,0.027l0.013,0.443L365.905,183.399z"/>
			<path id="path3116" fill="#00CA9E" stroke="#00CA9E" stroke-width="0.1296" d="M367.088,179.416v-0.268h-0.698l-0.121,0.403
				l-0.806,0.013l-0.161-0.752v-0.778l0.148-0.51l0.819-0.027l0.201,0.269v1.141l0.913,0.027l0.014,0.443L367.088,179.416z"/>
			<path id="path3118" fill="#00CA9E" stroke="#00CA9E" stroke-width="0.1296" d="M376.549,185.251h-0.966
				c0,0-1.168,0.846-0.041,2.013c0.027-0.04,1.262,0.054,1.262,0.054S377.878,186.07,376.549,185.251z"/>
			<path id="path3120" fill="#00CA9E" stroke="#00CA9E" stroke-width="0.1296" d="M376.618,189.361h-0.966
				c0,0-1.168,0.846-0.041,2.014c0.027-0.041,1.262,0.054,1.262,0.054S377.947,190.18,376.618,189.361L376.618,189.361z"/>
			<path id="path3122" fill="#00CA9E" stroke="#00CA9E" stroke-width="0.1166" d="M376.603,181.496h-0.777
				c0,0-0.939,0.851-0.033,2.026c0.021-0.041,1.015,0.054,1.015,0.054S377.672,182.32,376.603,181.496z"/>
			<path id="path3124" fill="#00CA9E" stroke="#00CA9E" stroke-width="0.1104" d="M375.448,178.17h-0.695
				c0,0-0.84,0.854-0.029,2.032c0.02-0.041,0.907,0.054,0.907,0.054S376.403,178.997,375.448,178.17L375.448,178.17z"/>
			<path id="path3126" fill="#00CA9E" stroke="#00CA9E" stroke-width="0.1218" d="M367.779,181.821h-0.852
				c0,0-1.028,0.849-0.035,2.021c0.023-0.041,1.111,0.054,1.111,0.054S368.949,182.643,367.779,181.821L367.779,181.821z"/>
			<path id="path3128" fill="#00CA9E" stroke="#00CA9E" stroke-width="0.134" d="M368.056,185.643h-0.964
				c0,0-1.166,0.906-0.04,2.157c0.027-0.043,1.259,0.058,1.259,0.058S369.382,186.52,368.056,185.643z"/>
			<path id="path3130" fill="#00CA9E" stroke="#00CA9E" stroke-width="0.1263" d="M367.864,189.493h-0.917
				c0,0-1.108,0.847-0.038,2.017c0.025-0.041,1.197,0.054,1.197,0.054S369.125,190.312,367.864,189.493z"/>
			<path id="path3132" fill="#00CA9E" stroke="#00CA9E" stroke-width="0.1429" d="M369.63,143.887l3.691,0.049l-0.12,1.36h-3.598
				L369.63,143.887L369.63,143.887L369.63,143.887z"/>
			<path id="path3134" fill="#00CA9E" stroke="#00CA9E" stroke-width="0.1869" d="M373.058,146.715h-3.07l0.002,1.365h3.044
				L373.058,146.715L373.058,146.715z"/>
			<path id="path3136" fill="#00CA9E" stroke="#00CA9E" stroke-width="0.2013" d="M370.183,149.635h2.586v1.499h-2.579
				L370.183,149.635z"/>
			<path id="path3138" fill="#00CA9E" stroke="#00CA9E" stroke-width="0.2" d="M370.557,152.319h1.863v0.829h-1.876L370.557,152.319
				L370.557,152.319z"/>
			<path id="path3140" fill="#00CA9E" stroke="#00CA9E" stroke-width="0.324" d="M370.44,153.937l-0.883-9.985l3.815,0.057
				l-0.892,9.938L370.44,153.937z"/>
			<path id="path3142" fill="#00CA9E" stroke="#00CA9E" stroke-width="0.311" d="M371.561,143.819v-6.853"/>
		</g>
	</g>
	<g id="layer10">
		<path id="path3090" fill="#00CA9E" stroke="#00CA9E" stroke-width="0.1635" d="M548.589,244.637
			c-0.166,0.595-0.894,1.43-0.957,1.48c-5.033,4.001-18.34,4.676-25.573-0.496c-0.286-0.204-1.569-1.822-1.569-1.865
			c-1.3-11.124-9.132-79.204,12.66-105.559c-0.156-0.156,2.35-0.156,2.35-0.156C558.47,161.188,549.705,244.507,548.589,244.637z"/>
	</g>
	<g id="layer9">
		<path id="path3293" fill="#00CA9E" stroke="#00CA9E" stroke-width="0.0153" d="M397.834,246.676v-2.311l0.257-0.256l-0.013-7.506
			c0,0-0.372-0.462-0.295-0.539c-0.025-0.089-0.025-0.577-0.025-0.577h0.372v-7.006l-0.347-0.244v-0.218l0.347,0.013l-0.347-0.411
			v-0.385l-0.455-0.263v-0.34l0.43-0.295v-0.449l0.295-0.206v-1.642h-0.27l-0.148-0.258v-0.243l0.157-0.158h1.352v1.21h0.27v0.205
			h0.552v-0.205h0.757v0.256h0.437v0.244h0.372v0.154l0.264,0.071v-0.905l0.211-0.385l0.18-0.18h1.809v0.206h2.117v-0.27h1.989
			v0.257h5.184v-0.308h1.963v0.308h5.248v-0.347h1.925v0.347h5.056v-0.333h2.297v0.295h1.835v-0.282h-0.282v-0.5h-0.206v-0.423
			h0.564v-3.24h-0.372v-0.917h0.167v-6.41v-1.295l-0.449-0.449v-0.392l0.591-0.225v-1.007l-0.162-0.043v-0.258l0.714-0.449
			l1.052-0.314h1.129v-2.926l-0.431-0.331v-0.544h0.443v-0.177h0.188l-0.036-0.134h-0.146l-0.173-0.174v-0.201l0.491-0.284v-0.645
			h0.217c0.354-2.983,2.123-8.738,7.428-10.611v-0.409h0.23v-0.254c0,0-0.411,0.043-0.469-0.235c0-0.072-0.022-0.305,0.243-0.412
			l0.162-0.012v-0.866h0.135v-0.468h0.16v0.423h0.34v-0.744h-0.186v-0.449h0.358v-3.259l-0.397-0.321v-0.256h0.434v-1.022
			l0.408,0.408v0.499h0.317v-1.851h-0.417v-0.327h0.235v-0.998c0,0,0.535-0.844,0.862-0.844v-0.308l-0.281-0.146v-0.145h0.309
			v-0.785h0.237c0,0-0.202-0.138-0.225-0.27l-0.006-0.301c0,0,0.083-0.148,0.18-0.154c0.108-0.007,0.128-0.006,0.128-0.006v-0.167
			c-0.925-0.454-0.198-1.319-0.006-1.229l0.025-1.6l0.155-0.866l0.155,0.866l0.025,1.6c0.192-0.09,0.919,0.776-0.007,1.229v0.167
			c0,0,0.02-0.001,0.129,0.006c0.096,0.006,0.18,0.154,0.18,0.154l-0.006,0.301c-0.022,0.132-0.225,0.27-0.225,0.27h0.237v0.785
			h0.309v0.145l-0.281,0.146v0.308c0.326,0,0.861,0.844,0.861,0.844v0.998h0.236v0.327h-0.417v1.851h0.317v-0.499l0.408-0.408v1.022
			h0.433v0.256l-0.397,0.321v3.259h0.359v0.449h-0.186v0.744h0.34v-0.423h0.16v0.468h0.135v0.866l0.162,0.012
			c0.266,0.107,0.243,0.34,0.243,0.412c-0.058,0.278-0.469,0.235-0.469,0.235v0.254h0.23v0.409
			c5.305,1.873,7.073,7.628,7.427,10.611h0.217v0.645l0.492,0.284v0.201l-0.174,0.174h-0.146l-0.035,0.134h0.187v0.177h0.443v0.544
			l-0.431,0.331v2.926h1.13l1.052,0.314l0.714,0.449v0.258l-0.162,0.043v1.007l0.59,0.225v0.392l-0.449,0.449v1.295v6.41h0.167
			v0.917h-0.372v3.24h0.564v0.423h-0.205v0.5h-0.282v0.201h2.555v-0.373h2.296v0.373h5.089v-0.325h1.971v0.363h5.29v-0.354h2.01
			v0.334h4.66v-0.321h2.529v0.298h10.12v-1.854l-0.298-0.223l-0.014-1.197l0.305-0.135v-0.46h-0.298v-1.542h0.9v-0.609l0.442,0.007
			l-0.277-0.374l-0.144-0.172l-0.019-0.383l0.321,0.008v-0.487h0.143v-4.14l-0.244-0.141l-0.363-0.177v-0.589h0.607v-0.899h0.176
			v-0.629h0.29h0.151v-0.781h-0.183v-0.268h0.183v-0.335h0.286v0.326h0.163v0.277h-0.163v0.45h0.23l0.268-0.431v-1.358h-0.201
			v-0.444h0.307v-0.456h0.229v-0.315h-0.221v-0.345h0.201v-0.325h0.153l-0.033-0.123h0.195l-0.017-0.587l0.284-0.386v-0.75
			l0.518-0.842h0.104c0,0,0.048-0.459,0.278-0.498c0-0.019,0.017-0.336,0.017-0.336c-0.202-0.027-0.295-0.395-0.011-0.517
			c0.002,0-0.009-0.311-0.007-0.312c-0.329-0.103-0.331-0.646,0.12-0.66c0.452,0.016,0.45,0.558,0.121,0.661
			c0.002,0.001-0.009,0.312-0.007,0.311c0.284,0.122,0.191,0.49-0.012,0.517c0,0,0.018,0.317,0.018,0.336
			c0.229,0.038,0.277,0.498,0.277,0.498h0.105l0.518,0.842v0.75l0.284,0.385l-0.018,0.587h0.196l-0.033,0.123h0.153v0.325h0.2v0.345
			h-0.22v0.315h0.229v0.456h0.306v0.444h-0.2v1.358l0.268,0.431h0.229v-0.45h-0.162v-0.277h0.162v-0.325h0.287v0.335h0.182v0.268
			h-0.182v0.781h0.15h0.291v0.629h0.176v0.899h0.607v0.589l-0.364,0.177l-0.243,0.14v4.14h0.143v0.487l0.321-0.008l-0.02,0.383
			l-0.144,0.172l-0.277,0.373l0.443-0.007v0.609h0.899v1.542h-0.297v0.46l0.304,0.135l-0.014,1.197l-0.297,0.223v1.495h1.218v-0.346
			c0,0-0.22-0.191-0.2-0.335c0,0.039,0.005-0.588,0.005-0.588s0.048-0.196,0.152-0.249c-0.014-0.014,0-1.287,0-1.287l0.139-0.134
			c0,0-0.072-0.262,0.165-0.272c-0.014,0,0.248-0.008,0.166,0.312c0-0.005,0.238,0.137,0.238,0.137v0.344h-0.101v0.148h0.163
			l-0.005,1.182h-0.153v1.086v1.868l0.298,0.189v1.008h-0.148v0.588h-0.162v5.547h0.474v0.913h0.317v0.616h-0.155v0.277h-0.474
			v0.906h0.183v0.649h-0.176v0.568h-0.162v7.103h0.311v0.291h0.169v0.169h0.156v2.415L397.834,246.676L397.834,246.676z"/>
	</g>
	<g id="layer8">
		<g id="g3281">
			<g id="g3293">
				<path id="path3295" fill="#00CA9E" stroke="#00CA9E" stroke-miterlimit="10" d="M576.093,209.092
					c0,0.356-0.342,0.646-0.763,0.646c-0.422,0-0.763-0.289-0.763-0.646s0.341-0.646,0.763-0.646
					C575.751,208.446,576.093,208.735,576.093,209.092z"/>
				<path id="path3297" fill="#00CA9E" stroke="#00CA9E" stroke-width="2.4423" d="M575.237,208.616l0.049-2.047l0.077,2.043
					L575.237,208.616L575.237,208.616z"/>
				<path id="path3299" fill="#00CA9E" stroke="#00CA9E" stroke-miterlimit="10" d="M575.585,209.538
					c-0.086,0.348,0.141,2.485,0.173,2.493c2.621,0.668,2.974,2.976,2.974,2.976l0.711,0.006l-0.001,1.302h-0.747l-0.041,9.902
					l-6.637-0.013l0.014-9.816h-0.713l-0.001-1.386l0.677-0.006c0,0,0.167-2.449,2.787-2.89c0.032-0.005,0.349-2.167,0.264-2.515
					L575.585,209.538L575.585,209.538L575.585,209.538z"/>
			</g>
			<g id="g3301">
				<path id="path3303" fill="#00CA9E" stroke="#00CA9E" stroke-width="0.8839" d="M565.242,205.489
					c0,0.357-0.342,0.646-0.763,0.646s-0.763-0.289-0.763-0.646c0-0.356,0.342-0.646,0.763-0.646S565.242,205.133,565.242,205.489z"
					/>
				<path id="path3305" fill="#00CA9E" stroke="#00CA9E" stroke-width="2.4423" d="M564.388,205.014l0.048-2.047l0.077,2.043
					L564.388,205.014L564.388,205.014z"/>
				<path id="path3307" fill="#00CA9E" stroke="#00CA9E" stroke-width="0.8276" d="M564.734,205.936
					c-0.085,0.348,0.142,2.485,0.174,2.493c2.621,0.668,2.973,2.976,2.973,2.976l0.711,0.006l-0.001,1.302h-0.747l-0.041,9.902
					l-6.637-0.012l0.014-9.816h-0.713l-0.001-1.386l0.677-0.006c0,0,0.168-2.449,2.787-2.89c0.032-0.006,0.35-2.167,0.265-2.515
					L564.734,205.936L564.734,205.936z"/>
			</g>
			<path id="path3310" fill="#00CA9E" stroke="#00CA9E" stroke-width="0.8839" d="M605.528,205.443c0,0.357-0.341,0.646-0.763,0.646
				c-0.421,0-0.763-0.289-0.763-0.646c0-0.356,0.342-0.646,0.763-0.646C605.188,204.797,605.528,205.086,605.528,205.443z"/>
			<path id="path3312" fill="#00CA9E" stroke="#00CA9E" stroke-width="0.2088" d="M604.674,204.967l0.048-2.047l0.077,2.043
				L604.674,204.967L604.674,204.967z"/>
			<g id="g3314">
				<path id="path3316" fill="#00CA9E" stroke="#00CA9E" stroke-miterlimit="10" d="M595.999,208.866
					c0,0.328-0.328,0.593-0.734,0.593c-0.405,0-0.734-0.266-0.734-0.593c0-0.327,0.329-0.593,0.734-0.593
					C595.671,208.273,595.999,208.539,595.999,208.866z"/>
				<path id="path3318" fill="#00CA9E" stroke="#00CA9E" stroke-width="2.3223" d="M595.176,208.43l0.047-1.88l0.074,1.877
					L595.176,208.43L595.176,208.43z"/>
				<path id="path3321" fill="#00CA9E" stroke="#00CA9E" stroke-miterlimit="10" d="M595.511,209.276
					c-0.082,0.32,0.136,2.282,0.167,2.29c2.523,0.613,2.862,2.732,2.862,2.732l0.685,0.006l-0.001,1.196h-0.719l-0.04,9.095
					l-6.39-0.011l0.013-9.017h-0.687l-0.001-1.273l0.652-0.006c0,0,0.16-2.249,2.683-2.654c0.031-0.005,0.337-1.99,0.255-2.31
					L595.511,209.276L595.511,209.276z"/>
			</g>
			<path id="path3323" fill="#00CA9E" stroke="#00CA9E" stroke-width="0.0708" d="M605.036,205.996
				c-0.085,0.348,0.142,2.485,0.174,2.493c2.621,0.668,2.973,2.976,2.973,2.976l0.711,0.006v1.302h-0.747l-0.042,9.902l-6.636-0.012
				l0.013-9.816h-0.713l-0.001-1.386l0.678-0.006c0,0,0.167-2.449,2.786-2.89c0.032-0.005,0.35-2.166,0.265-2.514L605.036,205.996
				L605.036,205.996z"/>
			<path id="path3325" fill="#00CA9E" stroke="#00CA9E" stroke-width="0.0696" d="M614.814,222.993c0,0,0.003-1.433,0.001-1.428
				c-0.188-0.131-1.231-0.21-1.231-0.21v1.781l-1.101-0.141l-0.016-1.682c-0.674-0.106-0.962-0.141-1.596-0.164l0.012,1.615
				l-1.187-0.139v-1.517c-0.876-0.026-1.507-0.033-1.507-0.033l0.021,1.511l-1.721-0.009h-1.527v-1.605h-2.374l0.021,1.624
				l-1.506-0.007v-1.605l-2.336,0.007l-0.006,1.622l-1.516-0.008V221h-2.374l0.011,1.627l-1.496-0.01v-1.605h-2.374l0.021,1.621
				l-1.507-0.002v-1.605h-2.374l0.021,1.625l-1.506-0.004v-1.605h-2.374l0.011,1.621l-1.496-0.002v-1.604h-2.374l0.017,1.625
				l-1.5-0.006v-1.604h-2.374l0.021,1.623l-1.506-0.007v-1.604h-2.374v1.595h-1.512v-1.555h-9.042l0.073,26.488
				c-0.08,0.017,43.941-0.14,44.021-0.141c0,0,9.023-0.128,9.538-1.229C614.83,245.763,614.814,223.025,614.814,222.993
				L614.814,222.993z"/>
			<path id="path3056" fill="#00CA9E" stroke="#00CA9E" stroke-width="0.24" d="M558.284,252.674l-0.011-2.863
				c0,0-0.562-0.096-0.53-0.308c0.031-0.212,0.351-0.059,0.445-0.318c0.304-0.833-0.148-1.442-0.96-1.455
				c-0.896,0.003-1.296,0.628-0.992,1.461c0.095,0.26,0.414,0.106,0.445,0.318c0.032,0.212-0.53,0.308-0.53,0.308l-0.026,2.709v0.16
				L558.284,252.674L558.284,252.674z"/>
		</g>
	</g>
	<g id="layer5">
		<g id="g3843">
			<path id="path3146" fill="#00CA9E" stroke="#00CA9E" stroke-miterlimit="10" d="M957.483,261.891c0,0-26.38,0.965-27.57,0.148
				c-0.141,0.074-2.418,2.375-3.363,4.416c0.035-0.111-1.191-0.148-1.191-0.148s0.93-2.867,0.706-3.707
				c-0.074,0.104-4.508-0.971-5.821-1.129c0.1,0.053-1.238,0.21-1.733,4.33c0.024-0.157-1.14-0.025-1.14-0.025s0-4.121-1.288-4.698
				c-0.05-0.026-15.967-2.493-21.435-3.779c0,0-3.759,1.653-4.948,3.228c-0.594-0.262-0.594-0.262-0.594-0.262
				s3.146-3.674,3.021-4.855c-0.074-0.026,0.108-1.127-1.758-0.895c-0.026,0.019-4.492,3.22-5.07,4.055l-0.49-0.398
				c0,0,2.75-4.983,1.663-6.135c-0.034-0.037-2.594-3.398-4.179-3.109c0.099-0.079-6.763,2.257-6.763,2.257l-0.05-0.433
				c0,0,3.158-2.008,3.06-2.139c0,0-3.384,0.789-3.401,1.086c-0.053-0.26-0.069-0.334-0.069-0.334l5.552-4.992
				c0.526-0.52,7.629-5.872,18.03-10.988c1.027-0.505,14.645-8.653,40.989-8.76c-0.149,0,29.439-1.742,54.873,19.785
				c0,0,1.997,2.301,3.644,3.786c0.069,0.223-0.245,0.111-0.245,0.111s-4.484-2.339-5.29-0.742c-0.035,0-1.052,2.524-0.105,4.454
				s2.838,4.75,2.838,4.75l-0.245,0.148c0,0-4.029-4.75-5.921-4.193c0.175,0.074-2.032,0.334,2.978,5.567
				c0.035,0-0.314,0.334-0.314,0.334s-4.52-3.823-6.271-3.563c-1.471,0.371-15.66,4.417-15.66,4.417s-1.226,2.858-0.49,4.899
				c-0.14,0.037-0.735,0.26-0.735,0.26s-1.856-4.157-2.487-4.157c-1.366,0.148-5.29,1.188-5.29,1.188s0.666,3.006,1.261,3.785
				c-0.84,0.037-0.84,0.074-0.84,0.074S958.045,261.891,957.483,261.891L957.483,261.891z"/>
			<path id="path3148" fill="#00CA9E" stroke="#00CA9E" stroke-miterlimit="10" d="M899.118,233.423l-5.675-21.974l-0.211-4.305
				l2.033,4.156l6.096,20.785L899.118,233.423L899.118,233.423z"/>
			<path id="path3150" fill="#00CA9E" stroke="#00CA9E" stroke-miterlimit="10" d="M896.456,214.716l-0.42-5.864l2.032,4.677
				l4.624,18.632l-1.472,0.52L896.456,214.716z"/>
			<path id="path3152" fill="#00CA9E" stroke="#00CA9E" stroke-miterlimit="10" d="M906.056,229.934l-3.714-19.375l-0.351-4.454
				l1.542,4.231l4.624,19.003L906.056,229.934z"/>
			<path id="path3154" fill="#00CA9E" stroke="#00CA9E" stroke-miterlimit="10" d="M915.094,227.744l-1.752-12.36l0.07-5.642
				l1.752,5.419l1.821,12.545L915.094,227.744L915.094,227.744z"/>
			<path id="path3156" fill="#00CA9E" stroke="#00CA9E" stroke-miterlimit="10" d="M918.931,226.618l-1.585-16.115l0.148-4.566
				l1.288,5.091l1.833,15.537L918.931,226.618L918.931,226.618z"/>
			<path id="path3158" fill="#00CA9E" stroke="#00CA9E" stroke-miterlimit="10" d="M935.067,225.328l0.163-15.402l0.545-4.462
				l0.842,4.305l0.199,15.537L935.067,225.328L935.067,225.328z"/>
			<path id="path3160" fill="#00CA9E" stroke="#00CA9E" stroke-miterlimit="10" d="M940.185,224.728l0.248-8.451l1.189-6.194
				l0.99,6.562l-0.198,8.293L940.185,224.728z"/>
			<path id="path3162" fill="#00CA9E" stroke="#00CA9E" stroke-miterlimit="10" d="M951.58,225.463l1.536-14.855l1.14-4.619
				l0.297,5.301l-1.486,14.487L951.58,225.463z"/>
			<path id="path3164" fill="#00CA9E" stroke="#00CA9E" stroke-miterlimit="10" d="M963.619,227.982l2.576-12.65l1.982-5.721
				l-0.496,6.351l-2.229,12.808L963.619,227.982z"/>
			<path id="path3166" fill="#00CA9E" stroke="#00CA9E" stroke-miterlimit="10" d="M966.889,228.979l3.419-17.479l0.298-4.934
				l-1.636,5.144l-3.567,16.902L966.889,228.979z"/>
			<path id="path3168" fill="#00CA9E" stroke="#00CA9E" stroke-miterlimit="10" d="M974.42,231.814l5.301-18.529l1.982-4.409
				l-0.446,5.459l-4.706,18.687L974.42,231.814z"/>
		</g>
	</g>
	<g id="layer7">
		<g id="g12775">
			<path id="path2236" fill="#00CA9E" stroke="#00CA9E" d="M704.626,202.527l0.506,0.011l0.442-2.457l0.206-0.889l-0.29-0.021
				l-0.027-0.188l0.363-0.012l0.285-1.784l0.134-0.98l0.116,1.002l0.3,1.762l0.29,0.011l0.031,0.203l-0.298-0.022l0.831,5.121
				l0.058,35.492l0,0l-11.002-0.001v-35.493l0.846-5.209l-0.263,0.024l0.021-0.174l0.265-0.021l0.264-1.393l0.164-1.169l0.094,1.177
				l0.253,1.324l0.264,0.019L698.468,199l-0.219,0.023l0.264,1.057l0.814,2.442l0.505-0.004l2.309-8.219L704.626,202.527
				L704.626,202.527z"/>
			<path id="path7339" fill="#00CA9E" stroke="#00CA9E" d="M772.679,202.485h0.7l0.442-2.479l0.205-0.889l-0.289-0.021l-0.027-0.188
				l0.362-0.012l0.286-1.784l0.134-0.98l0.116,1.002l0.3,1.762l0.29,0.011l0.03,0.203l-0.297-0.022l0.831,5.121l0.058,35.492l0,0
				l-11.002-0.001v-35.493l0.845-5.21l-0.263,0.024l0.021-0.174l0.266-0.021l0.263-1.394l0.165-1.168l0.094,1.177l0.253,1.324
				l0.264,0.019l-0.011,0.142l-0.22,0.022l0.265,1.057l0.696,2.552l0.649,0.004l2.282-8.337L772.679,202.485L772.679,202.485z"/>
			<path id="path7342" fill="#00CA9E" stroke="#00CA9E" d="M764.835,210.09l-26.096,0.008v-0.501c0,0,0.159-1.01-0.471-0.957
				c0.022-0.007-0.569-0.091-0.517,0.828l-1.268-0.015l-0.016-0.782c0,0,0.865-1.017-0.296-1.382
				c-0.59,0.239-0.586,0.801-0.243,1.306c0.162,0.239,0.062,0.614,0.061,0.874l-1.29,0.007c0,0,0.041-0.821-0.319-0.82
				c0,0-0.796-0.202-0.614,1.18h-26.33v3.895h58.688v-3.65L764.835,210.09L764.835,210.09z"/>
			<g id="g13443">
				<path id="path8345" fill="#00CA9E" stroke="#00CA9E" stroke-width="3.3" d="M697.423,213.993
					c-16.783,16.76-25.182,24.523-46.654,25.19c0,0-16.812,0.961-26.241-6.203c0,0.043,0,0.043,0,0.043"/>
				<path id="path8336" fill="#00CA9E" stroke="#00CA9E" stroke-width="3.3" d="M697.164,213.118c0,0-23.911,22.21-46.465,24.767
					c0,0-11.734,0.994-26.493-6.417"/>
				<path id="path11254" fill="#00CA9E" stroke="#00CA9E" d="M691,218.351l-1.791,3.766"/>
				<path id="path11256" fill="#00CA9E" stroke="#00CA9E" d="M688.298,220.112l3.644-0.243"/>
				<path id="path11258" fill="#00CA9E" stroke="#00CA9E" d="M688.783,220.233l-1.336,3.28l0,0l0.121-0.091"/>
				<path id="path11262" fill="#00CA9E" stroke="#00CA9E" d="M681.966,225.168l3.766-0.273"/>
				<path id="path11264" fill="#00CA9E" stroke="#00CA9E" d="M681.191,225.608l-3.492,5.558"/>
				<path id="path11266" fill="#00CA9E" stroke="#00CA9E" d="M677.046,228.326l5.103,0.273"/>
				<path id="path11268" fill="#00CA9E" stroke="#00CA9E" d="M676.378,228.509l-3.401,5.739"/>
				<path id="path11270" fill="#00CA9E" stroke="#00CA9E" d="M672.643,230.482l4.465,1.701"/>
				<path id="path11272" fill="#00CA9E" stroke="#00CA9E" d="M671.854,231.029l-3.553,5.253"/>
				<path id="path11274" fill="#00CA9E" stroke="#00CA9E" d="M668.058,232.73l4.524,2.004"/>
				<path id="path11276" fill="#00CA9E" stroke="#00CA9E" d="M667.632,233.064l-3.887,4.585"/>
				<path id="path11278" fill="#00CA9E" stroke="#00CA9E" d="M663.594,234.704l4.068,1.792"/>
				<path id="path11280" fill="#00CA9E" stroke="#00CA9E" d="M662.196,235.311l-3.007,3.31"/>
				<path id="path11282" fill="#00CA9E" stroke="#00CA9E" d="M658.855,236.313l3.492,1.548"/>
				<path id="path11284" fill="#00CA9E" stroke="#00CA9E" d="M657.58,236.799c-0.121,0-2.794,2.186-2.794,2.186"/>
				<path id="path11286" fill="#00CA9E" stroke="#00CA9E" d="M654.604,237.315l2.976,1.427"/>
				<path id="path11288" fill="#00CA9E" stroke="#00CA9E" d="M653.724,237.71l-2.187,1.579"/>
				<path id="path11290" fill="#00CA9E" stroke="#00CA9E" stroke-width="2" d="M651.233,238.014l3.098,1.306"/>
				<path id="path12267" fill="#00CA9E" stroke="#00CA9E" stroke-width="2" d="M690.712,220.522v21.318"/>
				<path id="path12269" fill="#00CA9E" stroke="#00CA9E" stroke-width="2" d="M686.156,221.858v20.104"/>
				<path id="path12271" fill="#00CA9E" stroke="#00CA9E" stroke-width="2" d="M681.602,224.713v17.219"/>
				<path id="path12273" fill="#00CA9E" stroke="#00CA9E" stroke-width="2" d="M676.925,227.871v13.969"/>
				<path id="path12275" fill="#00CA9E" stroke="#00CA9E" stroke-width="2" d="M672.188,230.482v11.357"/>
				<path id="path12277" fill="#00CA9E" stroke="#00CA9E" stroke-width="2" d="M667.814,232.426v9.353l0.117-0.067l0.004,0.007"/>
				<path id="path12279" fill="#00CA9E" stroke="#00CA9E" stroke-width="2" d="M663.198,234.37v7.47"/>
				<path id="path12281" fill="#00CA9E" stroke="#00CA9E" stroke-width="2" d="M658.765,235.949v6.013"/>
				<path id="path12283" fill="#00CA9E" stroke="#00CA9E" stroke-width="2" d="M654.148,237.224v4.798"/>
				<path id="path12376" fill="#00CA9E" stroke="#00CA9E" d="M686.415,221.964l3.386-0.212"/>
				<path id="path12378" fill="#00CA9E" stroke="#00CA9E" d="M685.124,222.814l-2.794,5.072"/>
				<path id="path7591" fill="#00CA9E" stroke="#00CA9E" stroke-width="2" d="M645.372,241.756v-4.16"/>
				<path id="path7593" fill="#00CA9E" stroke="#00CA9E" stroke-width="2" d="M640.544,241.756v-4.768"/>
				<path id="path7595" fill="#00CA9E" stroke="#00CA9E" stroke-width="2" d="M635.988,241.665v-5.74"/>
				<path id="path7597" fill="#00CA9E" stroke="#00CA9E" stroke-width="2" d="M631.403,241.514v-6.955h0.121"/>
				<path id="path7599" fill="#00CA9E" stroke="#00CA9E" stroke-width="2" d="M626.97,241.331v-8.594"/>
				<path id="path8572" fill="#00CA9E" stroke="#00CA9E" d="M645.524,238.841l3.583-0.82"/>
				<path id="path8574" fill="#00CA9E" stroke="#00CA9E" d="M645.555,237.535l3.826,1.67"/>
				<path id="path8576" fill="#00CA9E" stroke="#00CA9E" d="M640.727,238.477l4.979-0.668"/>
				<path id="path8578" fill="#00CA9E" stroke="#00CA9E" d="M640.787,236.958l4.677,2.308v-0.03l0,0"/>
				<path id="path8580" fill="#00CA9E" stroke="#00CA9E" d="M636.05,237.808l4.373-0.729"/>
				<path id="path8582" fill="#00CA9E" stroke="#00CA9E" d="M636.11,235.986l4.19,2.733"/>
				<path id="path8584" fill="#00CA9E" stroke="#00CA9E" d="M631.494,236.745l4.434-0.85"/>
				<path id="path8586" fill="#00CA9E" stroke="#00CA9E" d="M631.524,234.498l4.373,3.34l0,0"/>
				<path id="path8588" fill="#00CA9E" stroke="#00CA9E" d="M627.03,234.893l4.251-0.365"/>
				<path id="path8590" fill="#00CA9E" stroke="#00CA9E" d="M627.151,232.707l4.069,3.826"/>
			</g>
			<g id="g12056">
				<g id="g11860">
					<path id="path11862" fill="#00CA9E" stroke="#00CA9E" stroke-width="3.3" d="M774.688,214.093
						c16.783,16.759,25.182,24.523,46.654,25.19c0,0,16.812,0.961,26.241-6.203"/>
					<path id="path11864" fill="#00CA9E" stroke="#00CA9E" stroke-width="3.3" d="M774.948,213.218c0,0,23.91,22.209,46.465,24.767
						c0,0,11.733,0.993,26.492-6.417"/>
					<path id="path11866" fill="#00CA9E" stroke="#00CA9E" d="M781.111,218.45l1.791,3.766"/>
					<path id="path11868" fill="#00CA9E" stroke="#00CA9E" d="M783.813,220.212l-3.644-0.243"/>
					<path id="path11870" fill="#00CA9E" stroke="#00CA9E" d="M783.328,220.333l1.336,3.28l0,0l-0.121-0.091"/>
					<path id="path11872" fill="#00CA9E" stroke="#00CA9E" d="M790.146,225.268l-3.766-0.273"/>
					<path id="path11874" fill="#00CA9E" stroke="#00CA9E" d="M790.92,225.708l3.492,5.557"/>
					<path id="path11876" fill="#00CA9E" stroke="#00CA9E" d="M795.065,228.426l-5.103,0.273"/>
					<path id="path11878" fill="#00CA9E" stroke="#00CA9E" d="M795.733,228.608l3.401,5.74"/>
					<path id="path11880" fill="#00CA9E" stroke="#00CA9E" d="M799.469,230.583l-4.465,1.701"/>
					<path id="path11882" fill="#00CA9E" stroke="#00CA9E" d="M800.258,231.129l3.554,5.254"/>
					<path id="path11884" fill="#00CA9E" stroke="#00CA9E" d="M804.054,232.83l-4.524,2.004"/>
					<path id="path11886" fill="#00CA9E" stroke="#00CA9E" d="M804.479,233.164l3.887,4.586"/>
					<path id="path11888" fill="#00CA9E" stroke="#00CA9E" d="M808.519,234.804l-4.069,1.792"/>
					<path id="path11890" fill="#00CA9E" stroke="#00CA9E" d="M809.915,235.411l3.007,3.31"/>
					<path id="path11892" fill="#00CA9E" stroke="#00CA9E" d="M813.256,236.413l-3.492,1.549"/>
					<path id="path11894" fill="#00CA9E" stroke="#00CA9E" d="M814.531,236.899c0.121,0,2.794,2.187,2.794,2.187"/>
					<path id="path11896" fill="#00CA9E" stroke="#00CA9E" d="M817.507,237.415l-2.976,1.428"/>
					<path id="path11898" fill="#00CA9E" stroke="#00CA9E" d="M818.388,237.81l2.187,1.579"/>
					<path id="path11900" fill="#00CA9E" stroke="#00CA9E" stroke-width="2" d="M820.878,238.114l-3.098,1.306"/>
					<path id="path11902" fill="#00CA9E" stroke="#00CA9E" stroke-width="2" d="M781.399,220.622v21.318"/>
					<path id="path11904" fill="#00CA9E" stroke="#00CA9E" stroke-width="2" d="M785.955,221.958v20.104"/>
					<path id="path11906" fill="#00CA9E" stroke="#00CA9E" stroke-width="2" d="M790.51,224.812v17.219"/>
					<path id="path11908" fill="#00CA9E" stroke="#00CA9E" stroke-width="2" d="M795.187,227.971v13.969"/>
					<path id="path11910" fill="#00CA9E" stroke="#00CA9E" stroke-width="2" d="M799.924,230.583v11.357"/>
					<path id="path11912" fill="#00CA9E" stroke="#00CA9E" stroke-width="2" d="M804.297,232.526v9.353l-0.117-0.067l-0.004,0.007"
						/>
					<path id="path11914" fill="#00CA9E" stroke="#00CA9E" stroke-width="2" d="M808.913,234.47v7.47"/>
					<path id="path11916" fill="#00CA9E" stroke="#00CA9E" stroke-width="2" d="M813.347,236.049v6.013"/>
					<path id="path11918" fill="#00CA9E" stroke="#00CA9E" stroke-width="2" d="M817.963,237.324v4.798"/>
					<path id="path11920" fill="#00CA9E" stroke="#00CA9E" d="M785.696,222.064l-3.386-0.213"/>
					<path id="path11922" fill="#00CA9E" stroke="#00CA9E" d="M786.987,222.915l2.794,5.071"/>
					<path id="path11924" fill="#00CA9E" stroke="#00CA9E" stroke-width="2" d="M826.739,241.855v-4.16"/>
					<path id="path11926" fill="#00CA9E" stroke="#00CA9E" stroke-width="2" d="M831.567,241.855v-4.767"/>
					<path id="path11928" fill="#00CA9E" stroke="#00CA9E" stroke-width="2" d="M836.123,241.765v-5.739"/>
					<path id="path11930" fill="#00CA9E" stroke="#00CA9E" stroke-width="2" d="M840.708,241.613v-6.955h-0.121"/>
					<path id="path11932" fill="#00CA9E" stroke="#00CA9E" stroke-width="2" d="M845.143,241.431v-8.594"/>
					<path id="path11934" fill="#00CA9E" stroke="#00CA9E" d="M826.587,238.94l-3.583-0.82"/>
					<path id="path11936" fill="#00CA9E" stroke="#00CA9E" d="M826.557,237.635l-3.826,1.67"/>
					<path id="path11938" fill="#00CA9E" stroke="#00CA9E" d="M831.385,238.576l-4.979-0.668"/>
					<path id="path11940" fill="#00CA9E" stroke="#00CA9E" d="M831.324,237.058l-4.676,2.308v-0.03l0,0"/>
					<path id="path11942" fill="#00CA9E" stroke="#00CA9E" d="M836.062,237.908l-4.373-0.729"/>
					<path id="path11944" fill="#00CA9E" stroke="#00CA9E" d="M836.001,236.086l-4.19,2.733"/>
					<path id="path11946" fill="#00CA9E" stroke="#00CA9E" d="M840.617,236.845l-4.434-0.85"/>
					<path id="path11948" fill="#00CA9E" stroke="#00CA9E" d="M840.587,234.598l-4.373,3.34l0,0"/>
					<path id="path11950" fill="#00CA9E" stroke="#00CA9E" d="M845.081,234.993l-4.251-0.364"/>
					<path id="path11952" fill="#00CA9E" stroke="#00CA9E" d="M844.96,232.806l-4.069,3.827"/>
				</g>
				<path id="path11954" fill="#00CA9E" stroke="#00CA9E" stroke-width="2.1378" d="M854.257,231.594l15.335,9.248"/>
				<path id="path11956" fill="#00CA9E" stroke="#00CA9E" stroke-width="2.1378" d="M853.635,232.109l14.529,8.975"/>
			</g>
			<path id="path2241" fill="#00CA9E" stroke="#00CA9E" d="M651.238,242.242l-0.011-2.899c0,0-0.568-0.097-0.536-0.311
				c0.031-0.215,0.354-0.059,0.45-0.322c0.309-0.844-0.15-1.46-0.972-1.473c-0.907,0.003-1.312,0.636-1.004,1.479
				c0.096,0.263,0.419,0.107,0.451,0.322s-0.537,0.311-0.537,0.311l-0.027,2.743v0.161L651.238,242.242L651.238,242.242z"/>
			<path id="path2249" fill="#00CA9E" stroke="#00CA9E" d="M822.975,242.229l-0.012-2.899c0,0-0.568-0.097-0.536-0.311
				c0.032-0.215,0.354-0.06,0.45-0.322c0.309-0.844-0.15-1.46-0.972-1.474c-0.907,0.003-1.312,0.636-1.004,1.479
				c0.096,0.263,0.419,0.107,0.451,0.322c0.032,0.214-0.537,0.311-0.537,0.311l-0.026,2.744v0.16L822.975,242.229L822.975,242.229z"
				/>
			<path id="path10593" fill="#00CA9E" stroke="#00CA9E" stroke-width="0.9041" d="M617.291,242.264l76.164,0.012l0.001-0.432l0,0
				c-0.007,0-67.754-0.145-76.17-0.149L617.291,242.264L617.291,242.264z"/>
			<path id="path2253" fill="#00CA9E" stroke="#00CA9E" stroke-width="0.9041" d="M617.298,239.642h76.296v1.449h-76.296V239.642
				L617.298,239.642z"/>
			<g id="g2268">
				<path id="path2264" fill="#00CA9E" stroke="#00CA9E" d="M778.786,239.733h136.101v1.503H778.648L778.786,239.733z"/>
				<path id="path2266" fill="#00CA9E" stroke="#00CA9E" d="M914.686,241.865c-0.012,0-136.418-0.054-136.418-0.054l0.011,0.502
					h136.406L914.686,241.865L914.686,241.865z"/>
			</g>
			<path id="path2276" fill="#00CA9E" stroke="#00CA9E" d="M761.5,239.661h17.826v10.082h-17.918L761.5,239.661z"/>
			<path id="path2280" fill="#00CA9E" stroke="#00CA9E" d="M693.202,239.661h17.826v10.082h-17.917L693.202,239.661z"/>
			<g id="g4241">
				<path id="path2291" fill="#00CA9E" stroke="#00CA9E" d="M709.484,240.492l22.936-11.431l0.682,1.353l-22.95,11.428
					L709.484,240.492z"/>
				<path id="path2296" fill="#00CA9E" stroke="#00CA9E" stroke-width="3" d="M709.619,247.341
					c0.017,0.003,13.939-11.523,23.158-16.236l0.645-0.329"/>
				<path id="path3270" fill="#00CA9E" stroke="#00CA9E" stroke-width="2.9" d="M712.057,245.237l-2.226-3.858l4.18,1.63
					l-1.354-2.789l3.96,0.942l-1.326-2.686l3.677,0.928l-1.091-2.287l3.461,0.663l-0.924-1.854l2.87,0.393l-0.823-1.413l2.621,0.254
					l-0.68-1.221l2.275,0.138l-0.536-1.028l2.074,0.071l-0.766-1.49l0,0"/>
			</g>
			<g id="g4247">
				<path id="path4249" fill="#00CA9E" stroke="#00CA9E" d="M762.69,240.282l-22.935-11.431l-0.682,1.353l22.949,11.428
					L762.69,240.282z"/>
				<path id="path4251" fill="#00CA9E" stroke="#00CA9E" stroke-width="3" d="M762.556,247.131
					c-0.017,0.003-13.938-11.523-23.158-16.236l-0.644-0.33"/>
				<path id="path4253" fill="#00CA9E" stroke="#00CA9E" stroke-width="2.9" d="M760.118,245.027l2.227-3.857l-4.181,1.629
					l1.355-2.789l-3.96,0.943l1.325-2.687l-3.677,0.928l1.092-2.287l-3.461,0.663l0.924-1.854l-2.871,0.394l0.823-1.413
					l-2.621,0.254l0.68-1.221l-2.275,0.138l0.536-1.028l-2.074,0.071l0.766-1.49l0,0"/>
			</g>
			<path id="path12772" fill="#00CA9E" stroke="#00CA9E" stroke-width="0.2055" d="M620.831,219.625
				c0.083-0.037,0.149-0.134,0.149-0.236l0,0c0-0.134-0.104-0.244-0.23-0.244c-0.128,0-0.231,0.109-0.231,0.244
				c0,0.105,0.063,0.196,0.162,0.235l-0.023,1.366l-0.387,0.005v0.262h0.145c0,0,0.032,0.398-0.044,0.691
				c-1.002,2.611-1.928,2.929-1.928,2.929l-1.129-0.011l-0.545,1.043l-0.011,3.578l-0.581,0.006l-0.008,0.804h0.6v8.38l-0.665,1.724
				l0.021,8.618l0,0l9.15-0.001l-0.021-8.73l-0.687-1.724v-8.267h0.6l-0.008-0.804l-0.581-0.006l-0.011-3.578l-0.48-0.998
				l-0.997-0.035c0,0-0.804-0.493-1.939-2.966c-0.029-0.452,0.003-0.655-0.002-0.659l0,0l0.144,0.002l-0.002-0.269h-0.393
				L620.831,219.625L620.831,219.625z"/>
			<path id="path12108" fill="#00CA9E" stroke="#00CA9E" stroke-width="0.2055" d="M851.143,219.625
				c0.083-0.037,0.149-0.134,0.149-0.236l0,0c0-0.134-0.104-0.244-0.231-0.244c-0.127,0-0.23,0.109-0.23,0.244
				c0,0.105,0.063,0.196,0.162,0.235l-0.023,1.366l-0.387,0.005v0.262h0.145c0,0,0.032,0.398-0.044,0.691
				c-1.002,2.611-1.928,2.929-1.928,2.929l-1.129-0.011l-0.545,1.043l-0.011,3.578l-0.581,0.006l-0.008,0.804h0.6v8.38l-0.665,1.724
				l0.021,8.618l0,0l9.151-0.001l-0.021-8.73l-0.688-1.724v-8.267h0.6l-0.008-0.804l-0.58-0.006l-0.012-3.578l-0.48-0.998
				l-0.996-0.035c0,0-0.804-0.493-1.939-2.966c-0.029-0.452,0.003-0.655-0.003-0.659l0,0l0.144,0.002l-0.002-0.269h-0.393
				L851.143,219.625L851.143,219.625z"/>
		</g>
	</g>
	<g id="layer4">
		<path id="path2912" fill="#00CA9E" stroke="#00CA9E" stroke-width="0.0718" d="M339.483,247.661h10.996v-1.573h-1.089v-1.292
			h-1.251v-2.945l-0.763-0.44v-4.281l0.723-0.504v-0.505l-0.787-0.484v-0.444l0.01-0.324c0,0,0.014-0.271-0.243-0.285
			c0.015-0.015,0.157-0.457-0.2-0.614c0.043,0-0.242-29.631-0.242-29.631s-0.195-0.154-0.319-0.184
			c0.062-0.03,0.347-2.455,1.032-3.026c0.001-0.051-0.003-0.104-0.003-0.104l-0.136-0.01v-0.172l0.167-0.07v-0.142
			c0,0-0.681-0.055-0.807-0.328c-0.005-0.025-0.278-1.377-0.958-1.523c0.032-0.003-0.479-0.005-0.535-0.004
			c-0.056,0.001-0.581,0.005-0.535,0.006c-0.56,0.079-0.953,1.498-0.958,1.523c-0.126,0.272-0.807,0.328-0.807,0.328v0.141
			l0.167,0.071v0.171l-0.136,0.01c0,0-0.004,0.052-0.003,0.104c0.685,0.57,0.97,2.996,1.032,3.026
			c-0.124,0.03-0.319,0.184-0.319,0.184s-0.285,29.631-0.242,29.631c-0.357,0.157-0.214,0.599-0.2,0.613
			c-0.257,0.015-0.243,0.286-0.243,0.286l0.01,0.323v0.444l-0.787,0.484v0.504l0.723,0.504v4.281l-0.763,0.44v2.946h-1.251v1.291
			h-1.089v1.573h10.996"/>
		<path id="path2914" fill="#00CA9E" stroke="#00CA9E" stroke-width="0.0718" d="M344.177,198.973l-0.996-0.009
			c0,0,0.287-0.386,0.323-0.619c0.054-0.233,0.368-0.278,0.413-0.449c0,0.054,0.269-1.687,0.386-1.759
			c0.116-0.072-0.108-0.099-0.108-0.099s-0.072,0.188-0.188,0.197c-0.107,0.009-0.206-0.52-0.206-0.52l-0.009-0.592l0.081-0.054
			l0.018-0.179l0.287-0.063c0,0,0.117,0.018,0.215,0.108c0.009,0,0.126-0.135,0.233-0.108c0.099,0.009,0.036-0.359,0.036-0.359
			l-0.305-0.018c0,0,0.197-0.924,0.655-0.987c0.009,0-0.011-0.123,0.018-0.134c0.083-0.034,0.143-0.016,0.162,0
			c0.013,0.011,0.018,0.188,0.018,0.188s0.18,0.125,0.27,0.251c-0.009-0.054,0.152,0.251,0.152,0.251s0.091,0.011,0.099,0.018
			c0.022,0.018-0.001,0.175-0.009,0.198c-0.004,0.012-0.225,0.054-0.225,0.054l-0.134,0.072l-0.063,0.036l-0.018,0.458l0.216,0.107
			l0.036,0.072c0,0,0.197-0.021,0.323,0c0.027,0.004,0.144,0.197,0.108,0.386c-0.018,0.188,0.081,0.476,0.081,0.476l0.126,0.287
			l0.081,0.35l0.188,0.045l0.072,0.134l-0.009,0.117l-0.216,0.09l-0.476,2.028l-0.144-0.054l0.521-2.019c0,0-0.116,0.009-0.17-0.045
			c-0.054-0.054-0.287-0.592-0.278-0.709c-0.018-0.018-0.09-0.027-0.09-0.027v0.243l0.062,0.036l-0.009,1.14l-0.135,0.601
			l-0.26,0.027c0,0-0.081,0.197-0.027,0.251c0,0.018,0.368,0.036,0.359,0.421C345.567,198.793,344.177,198.99,344.177,198.973
			L344.177,198.973z"/>
	</g>
	<g id="layer3">
		<g id="g3766">
			<path id="path2836" fill="#00CA9E" stroke="#00CA9E" stroke-miterlimit="10" d="M290.751,175.123
				c0,1.078-0.895,1.953-1.999,1.953s-1.999-0.875-1.999-1.953s0.895-1.952,1.999-1.952S290.751,174.044,290.751,175.123z"/>
			<path id="path2838" fill="#00CA9E" stroke="#00CA9E" stroke-miterlimit="10" d="M283.076,176.578
				c0,1.078-0.895,1.952-1.999,1.952c-1.104,0-1.999-0.874-1.999-1.952s0.895-1.952,1.999-1.952
				C282.181,174.626,283.076,175.5,283.076,176.578z"/>
			<path id="path2840" fill="#00CA9E" stroke="#00CA9E" stroke-miterlimit="10" d="M276.912,178.922
				c0,1.078-0.895,1.952-1.999,1.952s-1.999-0.874-1.999-1.952s0.895-1.952,1.999-1.952S276.912,177.844,276.912,178.922z"/>
			<path id="path2842" fill="#00CA9E" stroke="#00CA9E" stroke-miterlimit="10" d="M271.171,182.507
				c0,1.078-0.895,1.952-1.999,1.952c-1.104,0-1.999-0.874-1.999-1.952c0-1.079,0.895-1.953,1.999-1.953
				C270.276,180.554,271.171,181.428,271.171,182.507z"/>
			<path id="path2844" fill="#00CA9E" stroke="#00CA9E" stroke-miterlimit="10" d="M266.466,186.964
				c0,1.078-0.895,1.952-1.999,1.952s-1.999-0.874-1.999-1.952s0.895-1.952,1.999-1.952S266.466,185.886,266.466,186.964z"/>
			<path id="path2846" fill="#00CA9E" stroke="#00CA9E" stroke-miterlimit="10" d="M262.655,192.25c0,1.078-0.895,1.952-1.999,1.952
				s-1.999-0.874-1.999-1.952s0.895-1.952,1.999-1.952S262.655,191.171,262.655,192.25z"/>
			<path id="path2848" fill="#00CA9E" stroke="#00CA9E" stroke-miterlimit="10" d="M259.832,198.316
				c0,1.078-0.895,1.952-1.999,1.952s-1.999-0.874-1.999-1.952s0.895-1.952,1.999-1.952S259.832,197.238,259.832,198.316z"/>
			<path id="path2850" fill="#00CA9E" stroke="#00CA9E" stroke-miterlimit="10" d="M258.326,204.75c0,1.078-0.895,1.952-1.999,1.952
				c-1.104,0-1.999-0.874-1.999-1.952s0.895-1.953,1.999-1.953C257.431,202.797,258.326,203.672,258.326,204.75z"/>
			<path id="path2852" fill="#00CA9E" stroke="#00CA9E" stroke-miterlimit="10" d="M257.855,211.276
				c0,1.078-0.895,1.952-1.999,1.952s-1.999-0.874-1.999-1.952c0-1.079,0.895-1.953,1.999-1.953S257.855,210.197,257.855,211.276z"
				/>
			<path id="path2854" fill="#00CA9E" stroke="#00CA9E" stroke-miterlimit="10" d="M258.985,217.985
				c0,1.078-0.895,1.952-1.999,1.952c-1.104,0-1.999-0.874-1.999-1.952s0.895-1.952,1.999-1.952
				C258.09,216.033,258.985,216.907,258.985,217.985z"/>
			<path id="path2856" fill="#00CA9E" stroke="#00CA9E" stroke-miterlimit="10" d="M261.149,224.235
				c0,1.079-0.895,1.953-1.999,1.953s-1.999-0.874-1.999-1.953c0-1.078,0.895-1.952,1.999-1.952S261.149,223.157,261.149,224.235z"
				/>
			<path id="path2858" fill="#00CA9E" stroke="#00CA9E" stroke-miterlimit="10" d="M264.772,230.394
				c0,1.079-0.895,1.953-1.999,1.953s-1.999-0.874-1.999-1.953c0-1.078,0.895-1.952,1.999-1.952S264.772,229.315,264.772,230.394z"
				/>
			<path id="path2860" fill="#00CA9E" stroke="#00CA9E" stroke-miterlimit="10" d="M270.184,235.909
				c0,1.078-0.895,1.952-1.999,1.952s-1.999-0.874-1.999-1.952s0.895-1.952,1.999-1.952S270.184,234.831,270.184,235.909z"/>
			<path id="path2862" fill="#00CA9E" stroke="#00CA9E" stroke-miterlimit="10" d="M276.253,240.091
				c0,1.078-0.895,1.952-1.999,1.952s-1.999-0.874-1.999-1.952s0.895-1.952,1.999-1.952S276.253,239.013,276.253,240.091z"/>
			<path id="path2864" fill="#00CA9E" stroke="#00CA9E" stroke-miterlimit="10" d="M284.18,243.078c0,1.078-0.895,1.952-1.999,1.952
				s-1.999-0.874-1.999-1.952s0.895-1.952,1.999-1.952S284.18,242,284.18,243.078z"/>
			<path id="path2866" fill="#00CA9E" stroke="#00CA9E" stroke-miterlimit="10" d="M293.264,243.811
				c0,1.078-0.895,1.951-1.999,1.951s-1.999-0.873-1.999-1.951s0.895-1.953,1.999-1.953S293.264,242.732,293.264,243.811z"/>
			<path id="path2868" fill="#00CA9E" stroke="#00CA9E" stroke-miterlimit="10" d="M301.167,243.377
				c0,1.078-0.895,1.952-1.999,1.952c-1.104,0-1.999-0.874-1.999-1.952s0.895-1.953,1.999-1.953
				C300.272,241.424,301.167,242.299,301.167,243.377z"/>
			<path id="path2870" fill="#00CA9E" stroke="#00CA9E" stroke-miterlimit="10" d="M309.472,240.688
				c0,1.078-0.895,1.952-1.999,1.952c-1.104,0-1.999-0.874-1.999-1.952c0-1.079,0.895-1.953,1.999-1.953
				C308.577,238.736,309.472,239.61,309.472,240.688z"/>
			<path id="path2872" fill="#00CA9E" stroke="#00CA9E" stroke-miterlimit="10" d="M316.389,236.23c0,1.078-0.895,1.952-1.999,1.952
				s-1.999-0.874-1.999-1.952s0.895-1.952,1.999-1.952S316.389,235.152,316.389,236.23z"/>
			<path id="path2874" fill="#00CA9E" stroke="#00CA9E" stroke-miterlimit="10" d="M321.565,230.854
				c0,1.078-0.895,1.952-1.999,1.952s-1.999-0.874-1.999-1.952s0.895-1.952,1.999-1.952S321.565,229.775,321.565,230.854z"/>
			<path id="path2876" fill="#00CA9E" stroke="#00CA9E" stroke-miterlimit="10" d="M325.376,224.925
				c0,1.078-0.895,1.952-1.999,1.952c-1.104,0-1.999-0.874-1.999-1.952s0.895-1.952,1.999-1.952
				C324.481,222.973,325.376,223.847,325.376,224.925z"/>
			<path id="path2878" fill="#00CA9E" stroke="#00CA9E" stroke-miterlimit="10" d="M327.776,218.399
				c0,1.078-0.895,1.953-1.999,1.953s-1.999-0.875-1.999-1.953s0.895-1.952,1.999-1.952S327.776,217.321,327.776,218.399z"/>
			<path id="path2880" fill="#00CA9E" stroke="#00CA9E" stroke-miterlimit="10" d="M328.952,211.873
				c0,1.078-0.895,1.952-1.999,1.952c-1.104,0-1.999-0.874-1.999-1.952s0.895-1.952,1.999-1.952
				C328.057,209.921,328.952,210.795,328.952,211.873z"/>
			<path id="path2882" fill="#00CA9E" stroke="#00CA9E" stroke-miterlimit="10" d="M328.811,205.117
				c0,1.079-0.895,1.953-1.999,1.953s-1.999-0.874-1.999-1.953c0-1.078,0.895-1.952,1.999-1.952S328.811,204.039,328.811,205.117z"
				/>
			<path id="path2884" fill="#00CA9E" stroke="#00CA9E" stroke-miterlimit="10" d="M327.164,198.316
				c0,1.078-0.895,1.952-1.999,1.952c-1.104,0-1.999-0.874-1.999-1.952s0.895-1.952,1.999-1.952
				C326.269,196.364,327.164,197.238,327.164,198.316z"/>
			<path id="path2886" fill="#00CA9E" stroke="#00CA9E" stroke-miterlimit="10" d="M324.529,192.617
				c0,1.078-0.895,1.952-1.999,1.952s-1.999-0.874-1.999-1.952s0.895-1.952,1.999-1.952S324.529,191.539,324.529,192.617z"/>
			<path id="path2888" fill="#00CA9E" stroke="#00CA9E" stroke-miterlimit="10" d="M320.436,187.01c0,1.079-0.895,1.953-1.999,1.953
				c-1.104,0-1.999-0.874-1.999-1.953c0-1.078,0.895-1.952,1.999-1.952C319.541,185.058,320.436,185.932,320.436,187.01z"/>
			<path id="path2890" fill="#00CA9E" stroke="#00CA9E" stroke-miterlimit="10" d="M315.824,182.599
				c0,1.078-0.895,1.952-1.999,1.952s-1.999-0.874-1.999-1.952s0.895-1.952,1.999-1.952S315.824,181.521,315.824,182.599z"/>
			<path id="path2892" fill="#00CA9E" stroke="#00CA9E" stroke-miterlimit="10" d="M310.084,178.968
				c0,1.078-0.895,1.952-1.999,1.952c-1.104,0-1.999-0.874-1.999-1.952s0.895-1.952,1.999-1.952
				C309.189,177.016,310.084,177.89,310.084,178.968z"/>
			<path id="path2894" fill="#00CA9E" stroke="#00CA9E" stroke-miterlimit="10" d="M303.873,176.486
				c0,1.078-0.895,1.952-1.999,1.952c-1.104,0-1.999-0.874-1.999-1.952s0.895-1.952,1.999-1.952
				C302.978,174.534,303.873,175.408,303.873,176.486z"/>
			<path id="path2896" fill="#00CA9E" stroke="#00CA9E" stroke-miterlimit="10" d="M297.568,175.246
				c0,1.078-0.895,1.952-1.999,1.952c-1.104,0-1.999-0.874-1.999-1.952c0-1.079,0.895-1.953,1.999-1.953
				C296.673,173.293,297.568,174.167,297.568,175.246z"/>
			<path id="path2898" fill="#00CA9E" stroke="#00CA9E" stroke-width="0.9" d="M319.867,209.255
				c0,15.614-12.959,28.271-28.944,28.271c-15.986,0-28.945-12.657-28.945-28.271c0-15.613,12.959-28.271,28.945-28.271
				C306.908,180.984,319.867,193.642,319.867,209.255z"/>
			<path id="path2900" fill="#00CA9E" stroke="#00CA9E" stroke-width="2.8275" d="M324.568,209.452
				c0,17.907-14.862,32.423-33.196,32.423c-18.333,0-33.196-14.517-33.196-32.423s14.862-32.423,33.196-32.423
				C309.706,177.028,324.568,191.545,324.568,209.452z"/>
			<path id="path2902" fill="#00CA9E" stroke="#00CA9E" stroke-width="0.3055" d="M280.442,182.868l-2.995-2.502l0.233,3.802
				l-2.895-2.34l0.233,3.64l-2.695-2.21l0.565,3.672l-2.895-1.658l0.965,3.25l-3.66-0.942l1.597,2.957l-3.427-0.683l1.73,3.022
				l-3.793-0.52l2.263,2.86h-3.593l2.329,1.95l-3.493,0.617l2.396,1.917l-3.593,1.072l2.628,2.047l-3.061,1.527l2.828,1.365
				l-3.593,1.885l2.795,0.52l-2.928,2.502l3.261,0.39l-2.928,2.73l3.593,0.163l-3.094,2.762l3.593-0.064l-2.828,2.6l3.959,0.065
				l-2.628,2.665l3.593-0.39l-2.462,3.509l3.926-1.235l-2.263,4.03l3.793-1.625l-1.397,4.712l3.76-2.145l-1.098,4.745l3.893-2.373
				l-0.699,4.68l3.427-2.665l-0.299,4.907l3.394-3.315l0.632,4.777l3.127-3.38l0.898,4.777l2.695-3.867l1.364,4.484l2.029-4.225
				l2.196,4.484l1.397-4.452l2.229,4.16l1.265-4.712l2.861,3.9l0.599-4.647l3.261,3.542l0.133-4.777l3.46,3.25l-0.266-5.069
				l3.626,2.859l-0.765-4.647l3.394,2.535l-0.932-4.907l3.926,1.885l-1.397-4.777l4.026,1.56l-2.13-4.29l4.226,1.3l-2.861-4.225
				l4.425,0.39l-3.228-3.314l3.959-0.195l-3.327-2.924l4.192-1.073l-3.76-2.502l3.992-1.007l-3.66-1.853l3.693-1.007l-4.092-1.397
				l3.626-2.209l-4.458-0.357l3.36-2.438h-3.693l3.626-2.47l-4.658,0.13l2.995-3.12l-4.325,1.04l2.928-3.217l-4.226,0.39l1.93-3.737
				l-3.993,1.527l1.53-4.257l-3.494,2.047l0.999-4.354l-3.46,2.535l0.233-4.745l-2.944,2.876l-0.562-4.781l-3.435,2.62l-0.706-4.274
				l-2.635,3.263l-0.564-3.999l-2.447,3.539l-1.271-4.044l-1.458,3.493l-1.835-3.906l-1.224,3.906l-2.447-3.447l-0.329,3.677
				l-3.153-3.08l-0.188,3.861l-2.917-2.804L280.442,182.868L280.442,182.868z"/>
			<path id="path2904" fill="#00CA9E" stroke="#00CA9E" stroke-width="0.9" d="M293.551,208.54c0,1.203-0.998,2.177-2.229,2.177
				s-2.229-0.975-2.229-2.177c0-1.202,0.998-2.177,2.229-2.177S293.551,207.338,293.551,208.54z"/>
			<path id="path2906" fill="#00CA9E" stroke="#00CA9E" stroke-width="0.3486" d="M290.342,210.402l0.708,0.009
				c0,0-1.041,9.759-4.142,37.461l-3.622-0.068"/>
			<path id="path2908" fill="#00CA9E" stroke="#00CA9E" stroke-width="0.3527" d="M291.798,210.37l-0.725,0.008
				c0,0,1.497,11.726,4.611,37.588l3.337-0.199"/>
		</g>
	</g>
	<g id="layer2">
		<g id="g3522">
			<g id="g3172">
				<g id="g3174">
					<path id="path3176" fill="#00CA9E" stroke="#00CA9E" stroke-width="0.1233" d="M233.963,236.071v-35.384h0.686v-8.701h-1.319
						v-1.408h-0.606l-1.794-2.967v-2.707l-1.937-6.125l-0.013-1.137v1.137l-2.102,6.125v2.708l-1.793,2.967h-0.607v1.408h-1.319
						v8.701h0.686v35.39L233.963,236.071L233.963,236.071z"/>
					<path id="path3178" fill="#00CA9E" stroke="#00CA9E" stroke-miterlimit="10" d="M231.721,196.143
						c0,1.694-1.373,3.068-3.067,3.068s-3.067-1.374-3.067-3.068c0-1.694,1.373-3.068,3.067-3.068S231.722,194.449,231.721,196.143z
						"/>
				</g>
				<path id="path3180" fill="#00CA9E" stroke="#00CA9E" stroke-miterlimit="10" d="M212.795,220.1l16.562-0.048v16.021
					l-16.596,0.048L212.795,220.1z"/>
			</g>
			<path id="path3182" fill="#00CA9E" stroke="#00CA9E" stroke-miterlimit="10" d="M24.241,189.214l-2.348,3.584l-0.107-11.79
				l-1.492-2.256l-1.929,2.183l-0.029,54.626l19.326-6.979v6.999l0.029-54.392l-1.595-2.65l-1.878,2.47v11.836l-2.264-3.572
				l-2.089-0.006l-0.049-3.371l-1.843-2.961l-1.817,3.033l0.004,3.246L24.241,189.214L24.241,189.214z"/>
			<path id="path3184" fill="#00CA9E" stroke="#00CA9E" stroke-width="0.0181" d="M115.845,229.575v-15.563l-1.922-5.382v-4.357
				c0,0-3.244-7.931-3.372-13.441c-0.054-0.2-0.069-0.207-0.12-0.007c-0.128,5.51-3.358,13.447-3.358,13.447v4.357l-1.922,4.254
				v16.691"/>
			<path id="path3186" fill="#00CA9E" stroke="#00CA9E" stroke-width="0.2058" d="M87.979,247.861H76.884v-35.225l1.439-3.258
				l1.126,3.238l0.015,3.334h6.072v-3.621l1.195-2.94l1.233,2.996L87.979,247.861z"/>
			<path id="path3188" fill="#00CA9E" stroke="#00CA9E" stroke-width="0.2058" d="M144.073,247.879h-11.094v-35.224l1.439-3.258
				l1.126,3.239l0.015,3.334h6.072v-3.62l1.195-2.94l1.233,2.997L144.073,247.879z"/>
			<g id="g3190">
				<path id="path3192" fill="#00CA9E" stroke="#00CA9E" d="M27.787,247.857H16.693v-35.224l1.439-3.258l1.126,3.238l0.015,3.334
					h6.072v-3.621l1.195-2.94l1.233,2.996L27.787,247.857L27.787,247.857z"/>
				<path id="path3194" fill="#00CA9E" stroke="#00CA9E" d="M9.616,247.861l-11.094,0.017v-35.241l1.439-3.258l1.126,3.238
					l0.015,3.334h6.072v-3.621l1.195-2.94l1.233,2.996L9.616,247.861z"/>
				<path id="path3196" fill="#00CA9E" stroke="#00CA9E" stroke-width="0.2345" d="M11.376,221.952l0.034,0.263
					c0.297,0.185,0.33,0.643,0.323,0.646l-0.01,2.784l-0.716,0.004l-0.01-2.789c-0.007-0.002,0.025-0.461,0.323-0.646l0.02-0.263
					H11.376L11.376,221.952z"/>
				<path id="path3198" fill="#00CA9E" stroke="#00CA9E" stroke-width="1.8606" d="M2.768,225.766h21.02l-0.483,22.006l-20.699,0.01
					L2.768,225.766L2.768,225.766L2.768,225.766z"/>
				<path id="path3200" fill="#00CA9E" stroke="#00CA9E" stroke-width="0.2345" d="M15.227,221.952l0.033,0.263
					c0.298,0.185,0.33,0.643,0.323,0.646l-0.01,2.784l-0.716,0.004l-0.01-2.789c-0.007-0.002,0.025-0.461,0.323-0.646l0.021-0.263
					H15.227L15.227,221.952z"/>
			</g>
			<g id="g3202">
				<path id="path3204" fill="#00CA9E" stroke="#00CA9E" d="M222.5,247.867h-11.094v-35.224l1.439-3.258l1.126,3.238l0.015,3.334
					h6.072v-3.621l1.195-2.94l1.233,2.996L222.5,247.867L222.5,247.867z"/>
				<path id="path3206" fill="#00CA9E" stroke="#00CA9E" d="M204.33,247.869h-11.094v-35.223l1.439-3.258l1.126,3.238l0.015,3.334
					h6.072v-3.621l1.195-2.94l1.233,2.996L204.33,247.869L204.33,247.869z"/>
				<path id="path3208" fill="#00CA9E" stroke="#00CA9E" stroke-width="0.2345" d="M206.089,221.961l0.034,0.263
					c0.297,0.185,0.33,0.643,0.322,0.646l-0.01,2.785l-0.716,0.004l-0.01-2.789c-0.007-0.003,0.025-0.461,0.323-0.646l0.02-0.263
					H206.089L206.089,221.961z"/>
				<path id="path3210" fill="#00CA9E" stroke="#00CA9E" stroke-width="1.8359" d="M197.758,225.772h20.461l-0.47,22.011
					l-20.148,0.01L197.758,225.772L197.758,225.772z"/>
				<path id="path3212" fill="#00CA9E" stroke="#00CA9E" stroke-width="0.2345" d="M209.94,221.961l0.034,0.263
					c0.297,0.185,0.33,0.643,0.323,0.646l-0.01,2.785l-0.716,0.004l-0.01-2.789c-0.007-0.003,0.025-0.461,0.323-0.646l0.02-0.263
					H209.94L209.94,221.961z"/>
			</g>
			<g id="g3214">
				<path id="path3216" fill="#00CA9E" stroke="#00CA9E" stroke-width="0.2345" d="M31.013,224.9l0.034,0.263
					c0.298,0.185,0.33,0.643,0.323,0.646l-0.01,2.785l-0.716,0.004l-0.01-2.789c-0.007-0.003,0.025-0.461,0.323-0.646l0.021-0.263
					H31.013L31.013,224.9z"/>
				<path id="path3218" fill="#00CA9E" stroke="#00CA9E" stroke-width="0.2345" d="M35.239,224.9l0.034,0.263
					c0.297,0.185,0.33,0.643,0.323,0.646l-0.01,2.785l-0.716,0.004l-0.01-2.789c-0.007-0.003,0.025-0.461,0.323-0.646l0.02-0.263
					H35.239L35.239,224.9z"/>
				<path id="path3220" fill="#00CA9E" stroke="#00CA9E" stroke-width="0.2345" d="M39.55,224.9l0.033,0.263
					c0.298,0.185,0.33,0.643,0.323,0.646l-0.01,2.785l-0.716,0.004l-0.01-2.789c-0.007-0.003,0.025-0.461,0.322-0.646l0.021-0.263
					H39.55L39.55,224.9z"/>
				<path id="path3222" fill="#00CA9E" stroke="#00CA9E" stroke-width="0.2345" d="M43.776,224.9l0.033,0.263
					c0.298,0.185,0.33,0.643,0.323,0.646l-0.01,2.785l-0.716,0.004l-0.01-2.789c-0.007-0.003,0.025-0.461,0.323-0.646l0.021-0.263
					H43.776L43.776,224.9z"/>
				<path id="path3224" fill="#00CA9E" stroke="#00CA9E" stroke-width="0.2345" d="M48.057,224.973l0.034,0.263
					c0.298,0.185,0.33,0.643,0.323,0.646l-0.01,2.785l-0.716,0.004l-0.01-2.789c-0.007-0.003,0.025-0.461,0.323-0.646l0.021-0.263
					H48.057z"/>
				<path id="path3226" fill="#00CA9E" stroke="#00CA9E" stroke-width="0.2345" d="M52.283,224.973l0.034,0.263
					c0.297,0.185,0.33,0.643,0.323,0.646l-0.01,2.785l-0.716,0.004l-0.01-2.789c-0.007-0.003,0.025-0.461,0.323-0.646l0.02-0.263
					H52.283L52.283,224.973z"/>
				<path id="path3228" fill="#00CA9E" stroke="#00CA9E" stroke-width="0.2345" d="M56.594,224.973l0.033,0.263
					c0.298,0.185,0.33,0.643,0.323,0.646l-0.01,2.785l-0.716,0.004l-0.01-2.789c-0.007-0.003,0.025-0.461,0.322-0.646l0.021-0.263
					H56.594z"/>
				<path id="path3230" fill="#00CA9E" stroke="#00CA9E" stroke-width="0.2345" d="M60.82,224.973l0.033,0.263
					c0.298,0.185,0.33,0.643,0.323,0.646l-0.01,2.785l-0.716,0.004l-0.01-2.789c-0.007-0.003,0.025-0.461,0.323-0.646l0.021-0.263
					H60.82z"/>
				<path id="path3232" fill="#00CA9E" stroke="#00CA9E" stroke-width="0.2345" d="M65.308,224.828l0.033,0.263
					c0.298,0.185,0.33,0.643,0.323,0.646l-0.01,2.784l-0.716,0.005l-0.01-2.789c-0.007-0.003,0.025-0.461,0.323-0.646l0.021-0.263
					H65.308L65.308,224.828z"/>
				<path id="path3234" fill="#00CA9E" stroke="#00CA9E" stroke-width="0.2345" d="M69.618,224.828l0.034,0.263
					c0.297,0.185,0.33,0.643,0.323,0.646l-0.01,2.784l-0.716,0.005l-0.01-2.789c-0.007-0.003,0.025-0.461,0.323-0.646l0.02-0.263
					H69.618L69.618,224.828z"/>
				<path id="path3236" fill="#00CA9E" stroke="#00CA9E" stroke-width="0.2345" d="M73.844,224.828l0.034,0.263
					c0.297,0.185,0.33,0.643,0.322,0.646l-0.01,2.784l-0.716,0.005l-0.01-2.789c-0.007-0.003,0.025-0.461,0.323-0.646l0.02-0.263
					H73.844L73.844,224.828z"/>
				<path id="path3238" fill="#00CA9E" stroke="#00CA9E" stroke-width="1.1498" d="M19.831,228.499h65.041v19.347l-65.279,0.016
					L19.831,228.499z"/>
			</g>
			<g id="g3240">
				<path id="path3242" fill="#00CA9E" stroke="#00CA9E" stroke-width="0.236" d="M146.967,224.918l0.034,0.263
					c0.301,0.185,0.334,0.644,0.327,0.646l-0.01,2.785l-0.726,0.004l-0.01-2.789c-0.007-0.003,0.025-0.461,0.327-0.646l0.021-0.263
					H146.967L146.967,224.918z"/>
				<path id="path3244" fill="#00CA9E" stroke="#00CA9E" stroke-width="0.236" d="M151.245,224.918l0.034,0.263
					c0.301,0.185,0.334,0.644,0.327,0.646l-0.01,2.785l-0.725,0.004l-0.01-2.789c-0.007-0.003,0.025-0.461,0.327-0.646l0.021-0.263
					H151.245z"/>
				<path id="path3246" fill="#00CA9E" stroke="#00CA9E" stroke-width="0.236" d="M155.609,224.918l0.034,0.263
					c0.301,0.185,0.333,0.644,0.327,0.646l-0.01,2.785l-0.725,0.004l-0.01-2.789c-0.007-0.003,0.025-0.461,0.327-0.646l0.021-0.263
					H155.609L155.609,224.918z"/>
				<path id="path3248" fill="#00CA9E" stroke="#00CA9E" stroke-width="0.236" d="M159.888,224.918l0.034,0.263
					c0.302,0.185,0.334,0.644,0.327,0.646l-0.01,2.785l-0.725,0.004l-0.01-2.789c-0.007-0.003,0.025-0.461,0.327-0.646l0.021-0.263
					H159.888L159.888,224.918z"/>
				<path id="path3250" fill="#00CA9E" stroke="#00CA9E" stroke-width="0.236" d="M164.223,224.991l0.034,0.263
					c0.302,0.185,0.334,0.644,0.327,0.646l-0.01,2.785l-0.725,0.004l-0.01-2.789c-0.007-0.003,0.025-0.461,0.327-0.646l0.021-0.263
					H164.223L164.223,224.991z"/>
				<path id="path3252" fill="#00CA9E" stroke="#00CA9E" stroke-width="0.236" d="M168.502,224.991l0.034,0.263
					c0.302,0.185,0.334,0.644,0.327,0.646l-0.01,2.785l-0.725,0.004l-0.01-2.789c-0.007-0.003,0.025-0.461,0.327-0.646l0.021-0.263
					H168.502L168.502,224.991z"/>
				<path id="path3254" fill="#00CA9E" stroke="#00CA9E" stroke-width="0.236" d="M172.866,224.991l0.034,0.263
					c0.301,0.185,0.333,0.644,0.327,0.646l-0.01,2.785l-0.725,0.004l-0.01-2.789c-0.007-0.003,0.025-0.461,0.327-0.646l0.021-0.263
					H172.866L172.866,224.991z"/>
				<path id="path3256" fill="#00CA9E" stroke="#00CA9E" stroke-width="0.236" d="M177.145,224.991l0.034,0.263
					c0.301,0.185,0.333,0.644,0.327,0.646l-0.01,2.785l-0.725,0.004l-0.01-2.789c-0.007-0.003,0.025-0.461,0.327-0.646l0.021-0.263
					H177.145L177.145,224.991z"/>
				<path id="path3258" fill="#00CA9E" stroke="#00CA9E" stroke-width="0.236" d="M181.689,224.846l0.034,0.263
					c0.302,0.185,0.334,0.644,0.327,0.646l-0.01,2.785l-0.725,0.004l-0.01-2.789c-0.007-0.003,0.025-0.461,0.327-0.646l0.021-0.263
					H181.689L181.689,224.846z"/>
				<path id="path3260" fill="#00CA9E" stroke="#00CA9E" stroke-width="0.236" d="M186.053,224.846l0.034,0.263
					c0.301,0.185,0.334,0.644,0.327,0.646l-0.01,2.785l-0.725,0.004l-0.01-2.789c-0.007-0.003,0.026-0.461,0.327-0.646l0.021-0.263
					H186.053L186.053,224.846z"/>
				<path id="path3262" fill="#00CA9E" stroke="#00CA9E" stroke-width="0.236" d="M190.332,224.846l0.034,0.263
					c0.301,0.185,0.333,0.644,0.327,0.646l-0.01,2.785l-0.725,0.004l-0.01-2.789c-0.007-0.003,0.025-0.461,0.327-0.646l0.02-0.263
					H190.332L190.332,224.846z"/>
				<path id="path3264" fill="#00CA9E" stroke="#00CA9E" stroke-width="1.1399" d="M136.609,228.515h63.917v19.35h-64.151
					L136.609,228.515z"/>
			</g>
			<g id="g3266">
				<path id="path3268" fill="#00CA9E" stroke="#00CA9E" stroke-width="0.2345" d="M90.605,222.312l0.033,0.263
					c0.298,0.185,0.33,0.643,0.323,0.646l-0.01,2.784l-0.716,0.004l-0.01-2.789c-0.007-0.002,0.025-0.461,0.323-0.646l0.021-0.263
					H90.605z"/>
				<path id="path3271" fill="#00CA9E" stroke="#00CA9E" stroke-width="0.2345" d="M95.031,222.3l0.034,0.263
					c0.297,0.185,0.33,0.643,0.323,0.646l-0.01,2.785l-0.716,0.004l-0.01-2.789c-0.007-0.002,0.025-0.461,0.323-0.646l0.02-0.263
					L95.031,222.3z"/>
				<path id="path3273" fill="#00CA9E" stroke="#00CA9E" stroke-width="0.2345" d="M99.354,222.3l0.034,0.263
					c0.297,0.185,0.33,0.643,0.323,0.646l-0.01,2.785l-0.716,0.004l-0.01-2.789c-0.007-0.002,0.025-0.461,0.323-0.646l0.02-0.263
					L99.354,222.3z"/>
				<path id="path3275" fill="#00CA9E" stroke="#00CA9E" stroke-width="0.2345" d="M103.779,222.3l0.033,0.263
					c0.298,0.185,0.33,0.643,0.323,0.646l-0.01,2.785l-0.716,0.004l-0.01-2.789c-0.007-0.002,0.025-0.461,0.323-0.646l0.02-0.263
					L103.779,222.3z"/>
				<path id="path3277" fill="#00CA9E" stroke="#00CA9E" stroke-width="0.2345" d="M108.129,222.3l0.034,0.263
					c0.297,0.185,0.33,0.643,0.323,0.646l-0.01,2.785l-0.716,0.004l-0.01-2.789c-0.007-0.002,0.025-0.461,0.323-0.646l0.02-0.263
					L108.129,222.3z"/>
				<path id="path3279" fill="#00CA9E" stroke="#00CA9E" stroke-width="0.2345" d="M112.478,222.3l0.033,0.263
					c0.298,0.185,0.33,0.643,0.323,0.646l-0.01,2.785l-0.716,0.004l-0.01-2.789c-0.007-0.002,0.025-0.461,0.323-0.646l0.021-0.263
					L112.478,222.3z"/>
				<path id="path3281" fill="#00CA9E" stroke="#00CA9E" stroke-width="0.2345" d="M116.723,222.3l0.034,0.263
					c0.298,0.185,0.33,0.643,0.323,0.646l-0.01,2.785l-0.716,0.004l-0.01-2.789c-0.007-0.002,0.025-0.461,0.323-0.646l0.021-0.263
					L116.723,222.3z"/>
				<path id="path3283" fill="#00CA9E" stroke="#00CA9E" stroke-width="0.2345" d="M121.097,222.3l0.034,0.263
					c0.297,0.185,0.33,0.643,0.322,0.646l-0.01,2.785l-0.716,0.004l-0.01-2.789c-0.007-0.002,0.025-0.461,0.323-0.646l0.02-0.263
					L121.097,222.3z"/>
				<path id="path3285" fill="#00CA9E" stroke="#00CA9E" stroke-width="0.2345" d="M125.496,222.3l0.034,0.263
					c0.298,0.185,0.33,0.643,0.323,0.646l-0.01,2.785l-0.716,0.004l-0.01-2.789c-0.007-0.002,0.025-0.461,0.323-0.646l0.021-0.263
					L125.496,222.3z"/>
				<path id="path3287" fill="#00CA9E" stroke="#00CA9E" stroke-width="0.2345" d="M129.921,222.3l0.034,0.263
					c0.297,0.185,0.33,0.643,0.323,0.646l-0.01,2.785l-0.716,0.004l-0.01-2.789c-0.007-0.002,0.025-0.461,0.323-0.646l0.02-0.263
					L129.921,222.3z"/>
				<path id="path3289" fill="#00CA9E" stroke="#00CA9E" stroke-width="1.1562" d="M80.328,226.038h60.432v21.816h-60.7
					L80.328,226.038z"/>
			</g>
		</g>
	</g>
	<rect id="svg_1" x="-0.1" y="248.566" fill="#00CA9E" stroke="#00CA9E" stroke-width="5" width="998" height="30"/>
	<polygon id="svg_2" fill="#00CA9E" stroke="#00CA9E" stroke-width="5" points="156.9,240.566 158.9,240.566 158.9,240.566 	"/>
	<polygon id="svg_3" fill="#00CA9E" stroke="#00CA9E" stroke-width="5" points="280.9,220.566 318.9,220.566 318.9,220.566 	"/>
	<rect id="svg_4" x="176.9" y="441.566" fill="#00CA9E" stroke="#00CA9E" stroke-width="5" width="0" height="1"/>
	<rect id="svg_5" x="213.9" y="237.566" fill="#00CA9E" stroke="#00CA9E" stroke-width="5" width="19" height="18"/>
	<polygon id="svg_7" fill="#00CA9E" stroke="#00CA9E" stroke-width="5" points="227.9,242.566 228.9,242.566 228.9,242.566 	"/>
</g>
</svg>
